<mxfile host="app.diagrams.net" modified="2023-10-24T13:21:26.067Z" agent="Mozilla/5.0 (Windows NT 10.0; Win64; x64) AppleWebKit/537.36 (KHTML, like Gecko) Chrome/116.0.0.0 Safari/537.36" version="21.6.7" etag="MBy7JcGnP8uj6vkD636z" type="github">
  <diagram name="第 1 页" id="fDy-L7UeA9aZXoJxpMmf">
    <mxGraphModel>
      <root>
        <mxCell id="0" />
        <mxCell id="1" parent="0" />
      </root>
    </mxGraphModel>
  </diagram>
</mxfile>
